<svg width="12" height="12" viewBox="0 0 12 12" fill="none" xmlns="http://www.w3.org/2000/svg">
<path fill-rule="evenodd" clip-rule="evenodd" d="M9.5 1.5H8.5V1C8.5 0.7 8.3 0.5 8 0.5C7.7 0.5 7.5 0.7 7.5 1V1.5H4.5V1C4.5 0.7 4.3 0.5 4 0.5C3.7 0.5 3.5 0.7 3.5 1V1.5H2.5C1.65 1.5 1 2.15 1 3V10C1 10.85 1.65 11.5 2.5 11.5H9.5C10.35 11.5 11 10.85 11 10V3C11 2.15 10.35 1.5 9.5 1.5ZM2.5 2.5H3.5V3C3.5 3.3 3.7 3.5 4 3.5C4.3 3.5 4.5 3.3 4.5 3V2.5H7.5V3C7.5 3.3 7.7 3.5 8 3.5C8.3 3.5 8.5 3.3 8.5 3V2.5H9.5C9.8 2.5 10 2.7 10 3V4.5H2V3C2 2.7 2.2 2.5 2.5 2.5ZM2.5 10.5H9.5C9.8 10.5 10 10.3 10 10V5.5H2V10C2 10.3 2.2 10.5 2.5 10.5Z" fill="#0260E8"/>
</svg>
