<svg width="26" height="22" viewBox="0 0 26 22" fill="none" xmlns="http://www.w3.org/2000/svg">
<path fill-rule="evenodd" clip-rule="evenodd" d="M21.1414 1.83334C21.5256 1.83334 21.8138 2.01668 22.0059 2.38334C22.198 2.65834 22.102 3.02501 21.9099 3.30001L14.4173 11.7333V19.25C14.4173 19.6167 14.2252 19.8917 13.937 20.075C13.841 20.1667 13.6489 20.1667 13.4568 20.1667C13.2646 20.1667 13.1686 20.1667 13.0725 20.075L9.23021 18.2417C8.84598 18.0583 8.65386 17.7833 8.65386 17.4167V11.7333L1.16135 3.30001C0.969233 3.02501 0.873175 2.65834 1.06529 2.38334C1.25741 2.01668 1.54558 1.83334 1.92981 1.83334H21.1414ZM12.4962 11.4583C12.4962 11.1833 12.5922 11 12.6883 10.8167L19.1242 3.66668H4.04309L10.3829 10.9083C10.479 11 10.575 11.275 10.575 11.4583V16.8667L12.4962 17.7833V11.4583Z" fill="#485068"/>
</svg>
