<svg width="15" height="15" viewBox="0 0 15 15" fill="none" xmlns="http://www.w3.org/2000/svg">
<path d="M10.9421 4.68205C8.26466 3.05312 9.52021 0.753984 9.57412 0.658418C9.65228 0.522422 9.65202 0.355107 9.57344 0.219346C9.4949 0.083584 9.34994 0 9.19308 0C7.81487 0 6.73563 0.391582 5.98537 1.16394C4.70336 2.48358 4.76284 4.5375 4.78824 5.41456C4.79108 5.51174 4.79348 5.59567 4.79348 5.65805C4.79348 6.30926 4.89795 6.91043 4.99015 7.44088C5.04956 7.78271 5.10086 8.07791 5.11 8.30994C5.11976 8.55844 5.07438 8.61533 5.07248 8.61765C5.066 8.62535 5.01206 8.654 4.86634 8.654C4.70011 8.654 4.57759 8.59969 4.46899 8.47796C4.04489 8.00238 4.01556 6.70392 4.09666 5.99748C4.11116 5.87291 4.07175 5.74811 3.98834 5.65447C3.90497 5.56084 3.78555 5.50729 3.66019 5.50729C2.51922 5.50729 1.66663 7.37315 1.66663 9.04143C1.66663 9.82567 1.82439 10.5939 2.13549 11.3248C2.43625 12.0314 2.8651 12.6691 3.41026 13.2202C4.54548 14.3679 6.04235 15 7.62505 15C9.21417 15 10.7106 14.3769 11.8389 13.2454C12.9641 12.1169 13.5839 10.6239 13.5839 9.04137C13.5839 7.0222 12.004 5.32811 10.9421 4.68205Z" fill="#EA0D0D"/>
</svg>
