<svg width="26" height="26" viewBox="0 0 26 26" fill="none" xmlns="http://www.w3.org/2000/svg">
<path d="M5.07812 5.73828C5.07812 5.17731 5.53278 4.72266 6.09375 4.72266H19.9062C20.4672 4.72266 20.9219 5.17731 20.9219 5.73828C20.9219 6.29926 20.4672 6.75391 19.9062 6.75391H6.09375C5.53278 6.75391 5.07812 6.29926 5.07812 5.73828ZM20.9219 9.80078C20.9219 9.23981 20.4672 8.78516 19.9062 8.78516H6.09375C5.53278 8.78516 5.07812 9.23981 5.07812 9.80078C5.07812 10.3618 5.53278 10.8164 6.09375 10.8164H19.9062C20.4672 10.8164 20.9219 10.3618 20.9219 9.80078ZM6.09375 12.8477C5.53278 12.8477 5.07812 13.3023 5.07812 13.8633C5.07812 14.4243 5.53278 14.8789 6.09375 14.8789H10.7656C11.3266 14.8789 11.7812 14.4243 11.7812 13.8633C11.7812 13.3023 11.3266 12.8477 10.7656 12.8477H6.09375ZM25.1084 20.7995C26.2956 21.9867 26.2956 23.9196 25.1076 25.1076C24.5137 25.7015 23.7333 25.9986 22.9531 25.9986C22.173 25.9986 21.3926 25.7015 20.7987 25.1076L15.2449 19.5434C15.1211 19.4195 15.0316 19.2657 14.985 19.0969L13.8494 14.9977C13.7506 14.6407 13.8538 14.2582 14.119 13.9996C14.384 13.7411 14.7688 13.6471 15.1233 13.7548L19.1211 14.9692C19.2812 15.0178 19.4268 15.105 19.5448 15.2235L25.1084 20.7995ZM16.8711 18.2973L20.6043 22.0375L22.0408 20.6009L18.2868 16.8385L16.2998 16.2349L16.8711 18.2973ZM23.6712 22.235L23.4756 22.0389L22.0393 23.4752L22.2356 23.672C22.631 24.0673 23.2753 24.0673 23.6712 23.6712C24.0673 23.2753 24.0673 22.631 23.6712 22.235Z" fill="#0260E8"/>
</svg>
