<svg width="12" height="12" viewBox="0 0 12 12" fill="none" xmlns="http://www.w3.org/2000/svg">
<path fill-rule="evenodd" clip-rule="evenodd" d="M7.9 7.00766H10C10.3 7.00766 10.5 7.20766 10.5 7.50766C10.5 7.80766 10.3 8.00766 10 8.00766H7.8L7.5 10.5577C7.45 10.8077 7.25 11.0077 7 11.0077H6.95C6.65 10.9577 6.45 10.7077 6.5 10.4577L6.8 8.00766H4.8L4.5 10.5577C4.45 10.8077 4.25 11.0077 4 11.0077H3.95C3.65 10.9577 3.45 10.7077 3.5 10.4577L3.75 8.00766H2C1.7 8.00766 1.5 7.80766 1.5 7.50766C1.5 7.20766 1.7 7.00766 2 7.00766H3.9L4.1 5.00766H2C1.7 5.00766 1.5 4.80766 1.5 4.50766C1.5 4.20766 1.7 4.00766 2 4.00766H4.2L4.5 1.45766C4.55 1.15766 4.8 0.957657 5.05 1.00766C5.35 1.05766 5.55 1.30766 5.5 1.55766L5.2 4.00766H7.2L7.5 1.45766C7.55 1.15766 7.8 0.957657 8.05 1.00766C8.35 1.05766 8.55 1.30766 8.5 1.55766L8.25 4.00766H10C10.3 4.00766 10.5 4.20766 10.5 4.50766C10.5 4.80766 10.3 5.00766 10 5.00766H8.1L7.9 7.00766ZM5.1 5.00765L4.9 7.00765H6.9L7.1 5.00765H5.1Z" fill="#0260E8"/>
</svg>
