<svg width="24" height="24" viewBox="0 0 24 24" fill="none" xmlns="http://www.w3.org/2000/svg">
<path fill-rule="evenodd" clip-rule="evenodd" d="M12.6 1.22474L21.6 8.2168C21.9 8.41657 22 8.71623 22 9.01589V20.0034C22 21.7015 20.7 23 19 23H5C3.3 23 2 21.7015 2 20.0034V9.01589C2 8.71623 2.1 8.41657 2.4 8.2168L11.4 1.22474C11.7 0.925085 12.2 0.925085 12.6 1.22474ZM20 20.0034C20 20.6027 19.6 21.0023 19 21.0023H16V12.0125C16 11.4132 15.6 11.0136 15 11.0136H9C8.4 11.0136 8 11.4132 8 12.0125V21.0023H5C4.4 21.0023 4 20.6027 4 20.0034V9.51532L12 3.32236L20 9.51532V20.0034ZM10 21.0023V13.0114H14V21.0023H10Z" fill="#FF881B"/>
</svg>
