<svg width="135" height="135" viewBox="0 0 135 135" fill="none" xmlns="http://www.w3.org/2000/svg">
<path fill-rule="evenodd" clip-rule="evenodd" d="M72.6749 34.2675C82.0664 37.3928 90.2699 43.2023 96.0704 51.075C96.0704 44.955 94.6484 37.341 93.1454 32.3843C87.7409 31.5585 77.6789 32.4 72.6727 34.2698L72.6749 34.2675ZM94.5967 55.332C88.8277 49.3583 84.4694 45.7245 82.7077 44.685C77.9512 40.941 73.2149 38.7068 69.3809 36.7943C66.0352 38.601 56.0474 51.777 52.5779 58.2188C52.5779 58.2188 43.3192 57.1005 42.6329 73.4108C47.5897 66.4448 51.5564 67.626 51.5564 67.626C51.5564 67.626 52.9582 72.549 58.7744 76.9613C64.0147 80.6198 70.0559 81.1395 70.0559 81.1395C70.0559 81.1395 72.3059 84.609 67.0252 91.332C82.4759 86.067 78.7882 77.5013 78.7882 77.5013C83.9902 72.351 93.8069 59.0513 94.5967 55.3298V55.332ZM72.6749 49.5608C74.9718 49.5608 77.1745 50.4732 78.7986 52.0973C80.4228 53.7214 81.3352 55.9242 81.3352 58.221C81.3352 60.5179 80.4228 62.7206 78.7986 64.3448C77.1745 65.9689 74.9718 66.8813 72.6749 66.8813C70.3781 66.8813 68.1753 65.9689 66.5512 64.3448C64.9271 62.7206 64.0147 60.5179 64.0147 58.221C64.0147 55.9242 64.9271 53.7214 66.5512 52.0973C68.1753 50.4732 70.3781 49.5608 72.6749 49.5608Z" fill="#00D689"/>
<path fill-rule="evenodd" clip-rule="evenodd" d="M56.4299 88.8795L48.0149 81.999L40.1444 92.385C39.5324 93.1905 34.2224 94.9095 34.3079 89.7975C34.6724 68.3325 18.3104 76.6418 18.6389 71.2463C18.9651 65.853 16.8951 59.8433 10.1519 59.3168C3.4064 58.7903 3.47615 56.052 3.47615 56.052C2.66221 60.0424 2.25289 64.1047 2.2544 68.1773C2.2544 102.488 30.9711 130.3 66.3974 130.3C83.3601 130.3 98.7839 123.923 110.254 113.51C110.254 113.51 107.084 115.7 102.517 111.922C97.9491 108.142 92.6166 119.824 89.5701 112.133C86.5259 104.443 81.4116 108.443 78.5834 107.393C75.7551 106.34 76.1894 100.44 70.6386 100.964C65.0879 101.493 63.9044 102.276 58.1399 104.069C52.3754 105.858 46.2959 103.469 49.8644 98.3318L56.4299 88.8795Z" fill="#00D689"/>
<path fill-rule="evenodd" clip-rule="evenodd" d="M67.5126 128.263C33.9606 128.263 6.76257 101.065 6.76257 67.5126C6.76257 63.4559 7.16082 59.4891 7.91907 55.6551C13.4338 27.7799 38.0196 6.76263 67.5126 6.76263C101.065 6.76263 128.263 33.9606 128.263 67.5126C128.263 84.9996 120.876 100.759 109.052 111.842C97.8047 122.41 82.9459 128.284 67.5126 128.263ZM134.909 67.4609C134.909 30.2099 104.714 0.0126343 67.4608 0.0126343C30.2098 0.0126343 0.0125732 30.2099 0.0125732 67.4609C0.0125732 104.712 30.2098 134.909 67.4608 134.909C104.712 134.909 134.909 104.714 134.909 67.4609Z" fill="#00D689"/>
</svg>
