<svg width="30" height="30" viewBox="0 0 30 30" fill="white" xmlns="http://www.w3.org/2000/svg">
<path d="M25 15C25 15.75 24.5 16.25 23.75 16.25H16.25V23.75C16.25 24.5 15.75 25 15 25C14.25 25 13.75 24.5 13.75 23.75V16.25H6.25C5.5 16.25 5 15.75 5 15C5 14.25 5.5 13.75 6.25 13.75H13.75V6.25C13.75 5.5 14.25 5 15 5C15.75 5 16.25 5.5 16.25 6.25V13.75H23.75C24.5 13.75 25 14.25 25 15Z" fill="white"/>
<mask id="mask0" mask-type="alpha" maskUnits="userSpaceOnUse" x="5" y="5" width="20" height="20">
<path d="M25 15C25 15.75 24.5 16.25 23.75 16.25H16.25V23.75C16.25 24.5 15.75 25 15 25C14.25 25 13.75 24.5 13.75 23.75V16.25H6.25C5.5 16.25 5 15.75 5 15C5 14.25 5.5 13.75 6.25 13.75H13.75V6.25C13.75 5.5 14.25 5 15 5C15.75 5 16.25 5.5 16.25 6.25V13.75H23.75C24.5 13.75 25 14.25 25 15Z" fill="white"/>
</mask>
</svg>
