<svg width="19" height="19" viewBox="0 0 19 19" fill="none" xmlns="http://www.w3.org/2000/svg">
<path fill-rule="evenodd" clip-rule="evenodd" d="M14.25 13.1417L17.1791 16.0708C17.4958 16.3875 17.4958 16.8625 17.1791 17.1792C17.0208 17.3375 16.7833 17.4167 16.625 17.4167C16.4666 17.4167 16.2291 17.3375 16.0708 17.1792L13.1416 14.25C11.9541 15.2792 10.3708 15.8333 8.70831 15.8333C4.74998 15.8333 1.58331 12.6667 1.58331 8.70834C1.58331 4.75001 4.74998 1.58334 8.70831 1.58334C12.6666 1.58334 15.8333 4.75001 15.8333 8.70834C15.8333 10.3708 15.2 11.9542 14.25 13.1417ZM8.70831 3.16668C5.62081 3.16668 3.16665 5.62084 3.16665 8.70834C3.16665 11.7958 5.62081 14.25 8.78748 14.1708C10.2916 14.1708 11.6375 13.6167 12.6666 12.5875C13.6166 11.6375 14.25 10.2125 14.25 8.70834C14.25 5.62084 11.7958 3.16668 8.70831 3.16668Z" fill="#347AF0"/>
<mask id="mask0" mask-type="alpha" maskUnits="userSpaceOnUse" x="1" y="1" width="17" height="17">
<path fill-rule="evenodd" clip-rule="evenodd" d="M14.25 13.1417L17.1791 16.0708C17.4958 16.3875 17.4958 16.8625 17.1791 17.1792C17.0208 17.3375 16.7833 17.4167 16.625 17.4167C16.4666 17.4167 16.2291 17.3375 16.0708 17.1792L13.1416 14.25C11.9541 15.2792 10.3708 15.8333 8.70831 15.8333C4.74998 15.8333 1.58331 12.6667 1.58331 8.70834C1.58331 4.75001 4.74998 1.58334 8.70831 1.58334C12.6666 1.58334 15.8333 4.75001 15.8333 8.70834C15.8333 10.3708 15.2 11.9542 14.25 13.1417ZM8.70831 3.16668C5.62081 3.16668 3.16665 5.62084 3.16665 8.70834C3.16665 11.7958 5.62081 14.25 8.78748 14.1708C10.2916 14.1708 11.6375 13.6167 12.6666 12.5875C13.6166 11.6375 14.25 10.2125 14.25 8.70834C14.25 5.62084 11.7958 3.16668 8.70831 3.16668Z" fill="white"/>
</mask>
<g mask="url(#mask0)">
<rect width="19" height="19" fill="#BCC8DC"/>
</g>
</svg>
