<svg width="15" height="15" viewBox="0 0 15 15" fill="none" xmlns="http://www.w3.org/2000/svg">
<g clip-path="url(#clip0)">
<path d="M13.7914 11.8426L13.7408 11.9033C12.0765 13.9001 9.85973 15.0003 7.49999 15.0003C5.1399 15.0003 2.92343 13.9005 1.25882 11.9033L1.20862 11.8426L1.22047 11.7649C1.54189 9.66836 2.63722 7.98422 4.30463 7.02171L4.42315 6.95338L4.51763 7.05238C5.30514 7.87859 6.36421 8.33318 7.49964 8.33318C8.63506 8.33318 9.69414 7.87824 10.4816 7.05238L10.5761 6.95338L10.6946 7.02171C12.3621 7.98422 13.4574 9.66836 13.7792 11.7649L13.7914 11.8426ZM7.49999 7.49129C9.56515 7.49129 11.2455 5.81098 11.2455 3.74582C11.2455 1.68065 9.56515 0 7.49999 0C5.43482 0 3.75452 1.68065 3.75452 3.74547C3.75452 5.81029 5.43482 7.49129 7.49999 7.49129Z" fill="#0260E8"/>
</g>
<defs>
<clipPath id="clip0">
<rect width="15" height="15" fill="white"/>
</clipPath>
</defs>
</svg>
